name Walk3.mot
datacolumns 19
datarows 15
range 2.85400000 2.86800000
endheader

                time	   L_ground_force_vx	   L_ground_force_vy	   L_ground_force_vz	   L_ground_force_px	   L_ground_force_py	   L_ground_force_pz	   R_ground_force_vx	   R_ground_force_vy	   R_ground_force_vz	   R_ground_force_px	   R_ground_force_py	   R_ground_force_pz	   L_ground_torque_x	   L_ground_torque_y	   L_ground_torque_z	   R_ground_torque_x	   R_ground_torque_y	   R_ground_torque_z	
          2.85400000	          0.00000000	          0.00000000	          0.00000000	          0.00000000	          0.00000000	          0.00000000	         27.73795578	        668.03276794	         42.03929200	         -0.42330596	          0.00000000	         -0.05232140	          0.00000000	          0.00000000	          0.00000000	          0.00000000	          0.27297069	          0.00000000	
          2.85500000	          0.00000000	          0.00000000	          0.00000000	          0.00000000	          0.00000000	          0.00000000	         28.13970251	        669.41618193	         42.06531064	         -0.42297888	          0.00000000	         -0.05230415	          0.00000000	          0.00000000	          0.00000000	          0.00000000	          0.26679297	          0.00000000	
          2.85600000	          0.00000000	          0.00000000	          0.00000000	          0.00000000	          0.00000000	          0.00000000	         28.54920925	        670.81777570	         42.08665846	         -0.42265290	          0.00000000	         -0.05227481	          0.00000000	          0.00000000	          0.00000000	          0.00000000	          0.26345106	          0.00000000	
          2.85700000	          0.00000000	          0.00000000	          0.00000000	          0.00000000	          0.00000000	          0.00000000	         28.94300145	        672.23805421	         42.10991486	         -0.42232402	          0.00000000	         -0.05223915	          0.00000000	          0.00000000	          0.00000000	          0.00000000	          0.26710040	          0.00000000	
          2.85800000	          0.00000000	          0.00000000	          0.00000000	          0.00000000	          0.00000000	          0.00000000	         29.30824363	        673.70481353	         42.13870674	         -0.42197546	          0.00000000	         -0.05219489	          0.00000000	          0.00000000	          0.00000000	          0.00000000	          0.27615894	          0.00000000	
          2.85900000	          0.00000000	          0.00000000	          0.00000000	          0.00000000	          0.00000000	          0.00000000	         29.65511718	        675.25201519	         42.17242672	         -0.42158791	          0.00000000	         -0.05214038	          0.00000000	          0.00000000	          0.00000000	          0.00000000	          0.28500659	          0.00000000	
          2.86000000	          0.00000000	          0.00000000	          0.00000000	          0.00000000	          0.00000000	          0.00000000	         30.00454930	        676.87771708	         42.20883369	         -0.42116200	          0.00000000	         -0.05209084	          0.00000000	          0.00000000	          0.00000000	          0.00000000	          0.29222564	          0.00000000	
          2.86100000	          0.00000000	          0.00000000	          0.00000000	          0.00000000	          0.00000000	          0.00000000	         30.36780659	        678.54152967	         42.24547990	         -0.42071943	          0.00000000	         -0.05207334	          0.00000000	          0.00000000	          0.00000000	          0.00000000	          0.30461042	          0.00000000	
          2.86200000	          0.00000000	          0.00000000	          0.00000000	          0.00000000	          0.00000000	          0.00000000	         30.74281021	        680.19344979	         42.28247646	         -0.42028354	          0.00000000	         -0.05211119	          0.00000000	          0.00000000	          0.00000000	          0.00000000	          0.32839089	          0.00000000	
          2.86300000	          0.00000000	          0.00000000	          0.00000000	          0.00000000	          0.00000000	          0.00000000	         31.12143009	        681.78549126	         42.32140257	         -0.41987240	          0.00000000	         -0.05221190	          0.00000000	          0.00000000	          0.00000000	          0.00000000	          0.35832691	          0.00000000	
          2.86400000	          0.00000000	          0.00000000	          0.00000000	          0.00000000	          0.00000000	          0.00000000	         31.49569440	        683.27129111	         42.36133252	         -0.41950045	          0.00000000	         -0.05236188	          0.00000000	          0.00000000	          0.00000000	          0.00000000	          0.38072796	          0.00000000	
          2.86500000	          0.00000000	          0.00000000	          0.00000000	          0.00000000	          0.00000000	          0.00000000	         31.86652078	        684.62397635	         42.39967695	         -0.41917150	          0.00000000	         -0.05253184	          0.00000000	          0.00000000	          0.00000000	          0.00000000	          0.38712079	          0.00000000	
          2.86600000	          0.00000000	          0.00000000	          0.00000000	          0.00000000	          0.00000000	          0.00000000	         32.24789826	        685.86059232	         42.43478788	         -0.41887100	          0.00000000	         -0.05268874	          0.00000000	          0.00000000	          0.00000000	          0.00000000	          0.38225325	          0.00000000	
          2.86700000	          0.00000000	          0.00000000	          0.00000000	          0.00000000	          0.00000000	          0.00000000	         32.65465563	        687.04604749	         42.46786325	         -0.41856493	          0.00000000	         -0.05280684	          0.00000000	          0.00000000	          0.00000000	          0.00000000	          0.37923227	          0.00000000	
          2.86800000	          0.00000000	          0.00000000	          0.00000000	          0.00000000	          0.00000000	          0.00000000	         33.08693497	        688.25840220	         42.50472228	         -0.41822097	          0.00000000	         -0.05288426	          0.00000000	          0.00000000	          0.00000000	          0.00000000	          0.38838117	          0.00000000	
